<svg width="40" height="40" viewBox="0 0 40 40" fill="none" xmlns="http://www.w3.org/2000/svg">
<rect x="1" y="1" width="38" height="38" rx="7" fill="url(#paint0_linear_3_40)" stroke="url(#paint1_linear_3_40)" stroke-width="2"/>
<path d="M3.912 19.936C4.312 19.928 4.596 19.856 4.764 19.72C4.94 19.584 5.028 19.38 5.028 19.108C5.028 18.916 4.988 18.532 4.908 17.956C4.868 17.708 4.832 17.452 4.8 17.188C4.768 16.916 4.752 16.676 4.752 16.468C4.752 15.732 4.976 15.16 5.424 14.752C5.88 14.344 6.492 14.14 7.26 14.14H8.148V16.048H7.716C7.46 16.048 7.276 16.104 7.164 16.216C7.052 16.328 6.996 16.496 6.996 16.72C6.996 16.872 7.028 17.228 7.092 17.788C7.164 18.508 7.2 18.976 7.2 19.192C7.2 19.648 7.092 20.024 6.876 20.32C6.668 20.616 6.348 20.804 5.916 20.884V20.908C6.348 20.988 6.668 21.176 6.876 21.472C7.092 21.768 7.2 22.144 7.2 22.6C7.2 22.816 7.164 23.284 7.092 24.004C7.028 24.564 6.996 24.924 6.996 25.084C6.996 25.3 7.052 25.464 7.164 25.576C7.276 25.688 7.46 25.744 7.716 25.744H8.148V27.652H7.26C6.492 27.652 5.88 27.448 5.424 27.04C4.976 26.632 4.752 26.06 4.752 25.324C4.752 25.116 4.768 24.88 4.8 24.616C4.832 24.344 4.868 24.084 4.908 23.836C4.988 23.26 5.028 22.88 5.028 22.696C5.028 22.152 4.656 21.868 3.912 21.844V19.936ZM37.0311 21.844C36.2871 21.868 35.9151 22.152 35.9151 22.696C35.9151 22.88 35.9551 23.26 36.0351 23.836C36.0751 24.084 36.1111 24.344 36.1431 24.616C36.1751 24.88 36.1911 25.116 36.1911 25.324C36.1911 26.06 35.9631 26.632 35.5071 27.04C35.0591 27.448 34.4511 27.652 33.6831 27.652H32.7951V25.744H33.2271C33.4831 25.744 33.6671 25.688 33.7791 25.576C33.8911 25.464 33.9471 25.3 33.9471 25.084C33.9471 24.924 33.9151 24.564 33.8511 24.004C33.7791 23.284 33.7431 22.816 33.7431 22.6C33.7431 22.144 33.8471 21.768 34.0551 21.472C34.2711 21.176 34.5951 20.988 35.0271 20.908V20.884C34.5951 20.804 34.2711 20.616 34.0551 20.32C33.8471 20.024 33.7431 19.648 33.7431 19.192C33.7431 18.976 33.7791 18.508 33.8511 17.788C33.9151 17.228 33.9471 16.872 33.9471 16.72C33.9471 16.496 33.8911 16.328 33.7791 16.216C33.6671 16.104 33.4831 16.048 33.2271 16.048H32.7951V14.14H33.6831C34.4511 14.14 35.0591 14.344 35.5071 14.752C35.9631 15.16 36.1911 15.732 36.1911 16.468C36.1911 16.676 36.1751 16.916 36.1431 17.188C36.1111 17.452 36.0751 17.708 36.0351 17.956C35.9551 18.532 35.9151 18.916 35.9151 19.108C35.9151 19.38 35.9991 19.584 36.1671 19.72C36.3431 19.856 36.6311 19.928 37.0311 19.936V21.844Z" fill="#00B2FF"/>
<path d="M11.9303 19.204C12.1143 18.892 12.3743 18.644 12.7103 18.46C13.0463 18.276 13.4423 18.184 13.8983 18.184C14.4343 18.184 14.9183 18.324 15.3503 18.604C15.7903 18.884 16.1343 19.284 16.3823 19.804C16.6383 20.324 16.7663 20.932 16.7663 21.628C16.7663 22.324 16.6383 22.936 16.3823 23.464C16.1343 23.984 15.7903 24.384 15.3503 24.664C14.9183 24.944 14.4343 25.084 13.8983 25.084C13.4423 25.084 13.0463 24.992 12.7103 24.808C12.3823 24.624 12.1223 24.376 11.9303 24.064V28.216H9.57825V18.268H11.9303V19.204ZM14.3783 21.628C14.3783 21.188 14.2583 20.848 14.0183 20.608C13.7863 20.36 13.4983 20.236 13.1543 20.236C12.8103 20.236 12.5183 20.36 12.2783 20.608C12.0463 20.856 11.9303 21.196 11.9303 21.628C11.9303 22.068 12.0463 22.412 12.2783 22.66C12.5183 22.908 12.8103 23.032 13.1543 23.032C13.4983 23.032 13.7863 22.908 14.0183 22.66C14.2583 22.404 14.3783 22.06 14.3783 21.628ZM20.6025 25.084C19.9945 25.084 19.4505 24.984 18.9705 24.784C18.4985 24.576 18.1225 24.296 17.8425 23.944C17.5705 23.584 17.4185 23.18 17.3865 22.732H19.6665C19.6985 22.948 19.7985 23.116 19.9665 23.236C20.1345 23.356 20.3425 23.416 20.5905 23.416C20.7825 23.416 20.9345 23.376 21.0465 23.296C21.1585 23.216 21.2145 23.112 21.2145 22.984C21.2145 22.816 21.1225 22.692 20.9385 22.612C20.7545 22.532 20.4505 22.444 20.0265 22.348C19.5465 22.252 19.1465 22.144 18.8265 22.024C18.5065 21.904 18.2265 21.708 17.9865 21.436C17.7545 21.164 17.6385 20.796 17.6385 20.332C17.6385 19.932 17.7465 19.572 17.9625 19.252C18.1785 18.924 18.4945 18.664 18.9105 18.472C19.3345 18.28 19.8425 18.184 20.4345 18.184C21.3145 18.184 22.0065 18.4 22.5105 18.832C23.0145 19.264 23.3065 19.832 23.3865 20.536H21.2625C21.2225 20.32 21.1265 20.156 20.9745 20.044C20.8305 19.924 20.6345 19.864 20.3865 19.864C20.1945 19.864 20.0465 19.9 19.9425 19.972C19.8465 20.044 19.7985 20.144 19.7985 20.272C19.7985 20.432 19.8905 20.556 20.0745 20.644C20.2585 20.724 20.5545 20.808 20.9625 20.896C21.4505 21 21.8545 21.116 22.1745 21.244C22.5025 21.372 22.7865 21.58 23.0265 21.868C23.2745 22.148 23.3985 22.532 23.3985 23.02C23.3985 23.412 23.2825 23.764 23.0505 24.076C22.8265 24.388 22.5025 24.636 22.0785 24.82C21.6625 24.996 21.1705 25.084 20.6025 25.084ZM24.1708 21.628C24.1708 20.932 24.2948 20.324 24.5428 19.804C24.7988 19.284 25.1468 18.884 25.5868 18.604C26.0268 18.324 26.5148 18.184 27.0508 18.184C27.4828 18.184 27.8668 18.276 28.2028 18.46C28.5468 18.636 28.8148 18.88 29.0068 19.192V16.12H31.3708V25H29.0068V24.064C28.8228 24.376 28.5628 24.624 28.2268 24.808C27.8908 24.992 27.4948 25.084 27.0388 25.084C26.5028 25.084 26.0148 24.944 25.5748 24.664C25.1428 24.384 24.7988 23.984 24.5428 23.464C24.2948 22.936 24.1708 22.324 24.1708 21.628ZM29.0188 21.628C29.0188 21.196 28.8988 20.856 28.6588 20.608C28.4268 20.36 28.1388 20.236 27.7948 20.236C27.4428 20.236 27.1508 20.36 26.9188 20.608C26.6868 20.848 26.5708 21.188 26.5708 21.628C26.5708 22.06 26.6868 22.404 26.9188 22.66C27.1508 22.908 27.4428 23.032 27.7948 23.032C28.1388 23.032 28.4268 22.908 28.6588 22.66C28.8988 22.412 29.0188 22.068 29.0188 21.628Z" fill="white"/>
<path d="M3.912 19.936L3.904 19.5361L3.512 19.5439V19.936H3.912ZM4.764 19.72L4.51936 19.4034L4.51232 19.4091L4.764 19.72ZM4.908 17.956L5.30429 17.901L5.3029 17.8923L4.908 17.956ZM4.8 17.188L4.40274 17.2347L4.40291 17.2361L4.8 17.188ZM5.424 14.752L5.15727 14.4539L5.15467 14.4563L5.424 14.752ZM8.148 14.14H8.548V13.74H8.148V14.14ZM8.148 16.048V16.448H8.548V16.048H8.148ZM7.164 16.216L6.88116 15.9332L6.88116 15.9332L7.164 16.216ZM7.092 17.788L7.49005 17.7482L7.48941 17.7426L7.092 17.788ZM6.876 20.32L6.55283 20.0842L6.54872 20.09L6.876 20.32ZM5.916 20.884L5.84316 20.4907L5.516 20.5513V20.884H5.916ZM5.916 20.908H5.516V21.2407L5.84316 21.3013L5.916 20.908ZM6.876 21.472L6.54867 21.702L6.55288 21.7078L6.876 21.472ZM7.092 24.004L7.48945 24.0494L7.49002 24.0438L7.092 24.004ZM7.164 25.576L6.88116 25.8588H6.88116L7.164 25.576ZM8.148 25.744H8.548V25.344H8.148V25.744ZM8.148 27.652V28.052H8.548V27.652H8.148ZM5.424 27.04L5.15466 27.3357L5.15728 27.3381L5.424 27.04ZM4.8 24.616L5.1971 24.6641L5.19726 24.6627L4.8 24.616ZM4.908 23.836L5.30299 23.8997L5.3042 23.891L4.908 23.836ZM3.912 21.844H3.512V22.2313L3.8991 22.2438L3.912 21.844ZM3.92 20.3359C4.34294 20.3275 4.74063 20.2536 5.01568 20.0309L4.51232 19.4091C4.45137 19.4584 4.28106 19.5285 3.904 19.5361L3.92 20.3359ZM5.00858 20.0365C5.30457 19.8078 5.428 19.4732 5.428 19.108H4.628C4.628 19.2868 4.57543 19.3602 4.51942 19.4035L5.00858 20.0365ZM5.428 19.108C5.428 18.8837 5.38353 18.4722 5.3042 17.901L4.5118 18.011C4.59247 18.5918 4.628 18.9483 4.628 19.108H5.428ZM5.3029 17.8923C5.26378 17.6498 5.2285 17.399 5.19709 17.1399L4.40291 17.2361C4.4355 17.505 4.47222 17.7662 4.5131 18.0197L5.3029 17.8923ZM5.19726 17.1413C5.16655 16.8802 5.152 16.6564 5.152 16.468H4.352C4.352 16.6956 4.36945 16.9518 4.40274 17.2347L5.19726 17.1413ZM5.152 16.468C5.152 15.8184 5.34611 15.364 5.69333 15.0477L5.15467 14.4563C4.60589 14.956 4.352 15.6456 4.352 16.468H5.152ZM5.69072 15.0501C6.05604 14.7232 6.56436 14.54 7.26 14.54V13.74C6.41964 13.74 5.70396 13.9648 5.15728 14.4539L5.69072 15.0501ZM7.26 14.54H8.148V13.74H7.26V14.54ZM7.748 14.14V16.048H8.548V14.14H7.748ZM8.148 15.648H7.716V16.448H8.148V15.648ZM7.716 15.648C7.41656 15.648 7.10315 15.7112 6.88116 15.9332L7.44684 16.4988C7.44885 16.4968 7.50344 16.448 7.716 16.448V15.648ZM6.88116 15.9332C6.66769 16.1466 6.596 16.4343 6.596 16.72H7.396C7.396 16.5577 7.43631 16.5094 7.44684 16.4988L6.88116 15.9332ZM6.596 16.72C6.596 16.8996 6.63142 17.2807 6.69459 17.8334L7.48941 17.7426C7.42458 17.1753 7.396 16.8444 7.396 16.72H6.596ZM6.69399 17.8278C6.76648 18.5528 6.8 18.9998 6.8 19.192H7.6C7.6 18.9522 7.56152 18.4632 7.49002 17.7482L6.69399 17.8278ZM6.8 19.192C6.8 19.5842 6.70783 19.8719 6.55288 20.0842L7.19912 20.5558C7.47617 20.1761 7.6 19.7118 7.6 19.192H6.8ZM6.54872 20.09C6.41335 20.2827 6.1957 20.4254 5.84316 20.4907L5.98884 21.2773C6.5003 21.1826 6.92265 20.9493 7.20328 20.55L6.54872 20.09ZM5.516 20.884V20.908H6.316V20.884H5.516ZM5.84316 21.3013C6.1957 21.3666 6.41335 21.5093 6.54872 21.702L7.20328 21.242C6.92265 20.8427 6.5003 20.6094 5.98884 20.5147L5.84316 21.3013ZM6.55288 21.7078C6.70783 21.9201 6.8 22.2078 6.8 22.6H7.6C7.6 22.0802 7.47617 21.6159 7.19912 21.2362L6.55288 21.7078ZM6.8 22.6C6.8 22.7922 6.76648 23.2392 6.69399 23.9642L7.49002 24.0438C7.56152 23.3288 7.6 22.8398 7.6 22.6H6.8ZM6.69459 23.9586C6.63133 24.5121 6.596 24.8966 6.596 25.084H7.396C7.396 24.9514 7.42467 24.6159 7.48941 24.0494L6.69459 23.9586ZM6.596 25.084C6.596 25.3665 6.67017 25.6479 6.88116 25.8588L7.44684 25.2932C7.43383 25.2801 7.396 25.2335 7.396 25.084H6.596ZM6.88116 25.8588C7.10315 26.0808 7.41656 26.144 7.716 26.144V25.344C7.50344 25.344 7.44885 25.2952 7.44684 25.2932L6.88116 25.8588ZM7.716 26.144H8.148V25.344H7.716V26.144ZM7.748 25.744V27.652H8.548V25.744H7.748ZM8.148 27.252H7.26V28.052H8.148V27.252ZM7.26 27.252C6.56436 27.252 6.05604 27.0688 5.69072 26.7419L5.15728 27.3381C5.70396 27.8272 6.41964 28.052 7.26 28.052V27.252ZM5.69333 26.7443C5.34611 26.428 5.152 25.9736 5.152 25.324H4.352C4.352 26.1464 4.60589 26.836 5.15467 27.3357L5.69333 26.7443ZM5.152 25.324C5.152 25.1358 5.16653 24.9163 5.19709 24.6641L4.40291 24.5679C4.36947 24.8437 4.352 25.0962 4.352 25.324H5.152ZM5.19726 24.6627C5.22865 24.3959 5.26388 24.1416 5.3029 23.8997L4.5131 23.7723C4.47212 24.0264 4.43535 24.2921 4.40274 24.5693L5.19726 24.6627ZM5.3042 23.891C5.38341 23.3207 5.428 22.9126 5.428 22.696H4.628C4.628 22.8474 4.59259 23.1993 4.5118 23.781L5.3042 23.891ZM5.428 22.696C5.428 22.3222 5.29374 21.9876 4.99173 21.7571C4.71079 21.5426 4.33478 21.4574 3.9249 21.4442L3.8991 22.2438C4.23322 22.2546 4.41521 22.3234 4.50627 22.3929C4.57626 22.4464 4.628 22.5258 4.628 22.696H5.428ZM4.312 21.844V19.936H3.512V21.844H4.312ZM11.9303 19.204H11.5302V20.6697L12.2748 19.4072L11.9303 19.204ZM12.7102 18.46L12.5181 18.1092L12.7102 18.46ZM15.3503 18.604L15.1327 18.9397L15.1355 18.9415L15.3503 18.604ZM16.3822 19.804L16.0212 19.9762L16.0234 19.9807L16.3822 19.804ZM16.3822 23.464L16.0223 23.2895L16.0212 23.2918L16.3822 23.464ZM15.3503 24.664L15.1355 24.3265L15.1327 24.3283L15.3503 24.664ZM12.7102 24.808L12.5145 25.1569L12.5181 25.1588L12.7102 24.808ZM11.9303 24.064L12.2709 23.8544L11.5302 22.6508V24.064H11.9303ZM11.9303 28.216V28.616H12.3302V28.216H11.9303ZM9.57825 28.216H9.17825V28.616H9.57825V28.216ZM9.57825 18.268V17.868H9.17825V18.268H9.57825ZM11.9303 18.268H12.3302V17.868H11.9303V18.268ZM14.0183 20.608L13.726 20.8814L13.7354 20.8908L14.0183 20.608ZM12.2782 20.608L11.9908 20.3298L11.9861 20.3347L12.2782 20.608ZM12.2782 22.66L11.9861 22.9333L11.9908 22.9382L12.2782 22.66ZM14.0183 22.66L13.7264 22.3864L13.7261 22.3867L14.0183 22.66ZM12.2748 19.4072C12.4201 19.1609 12.6258 18.9623 12.9024 18.8108L12.5181 18.1092C12.1227 18.3257 11.8084 18.6231 11.5857 19.0008L12.2748 19.4072ZM12.9024 18.8108C13.1692 18.6647 13.4966 18.584 13.8983 18.584V17.784C13.3879 17.784 12.9233 17.8873 12.5181 18.1092L12.9024 18.8108ZM13.8983 18.584C14.3604 18.584 14.7682 18.7034 15.1327 18.9397L15.5678 18.2683C15.0683 17.9446 14.5081 17.784 13.8983 17.784V18.584ZM15.1355 18.9415C15.5057 19.177 15.802 19.5166 16.0212 19.9762L16.7433 19.6318C16.4665 19.0514 16.0748 18.591 15.565 18.2665L15.1355 18.9415ZM16.0234 19.9807C16.2474 20.4358 16.3663 20.9811 16.3663 21.628H17.1663C17.1663 20.8829 17.0291 20.2122 16.7411 19.6273L16.0234 19.9807ZM16.3663 21.628C16.3663 22.2747 16.2475 22.8251 16.0223 23.2895L16.7422 23.6385C17.029 23.0469 17.1663 22.3733 17.1663 21.628H16.3663ZM16.0212 23.2918C15.802 23.7514 15.5057 24.091 15.1355 24.3265L15.565 25.0015C16.0748 24.677 16.4665 24.2166 16.7433 23.6362L16.0212 23.2918ZM15.1327 24.3283C14.7682 24.5646 14.3604 24.684 13.8983 24.684V25.484C14.5081 25.484 15.0683 25.3234 15.5678 24.9997L15.1327 24.3283ZM13.8983 24.684C13.4966 24.684 13.1692 24.6033 12.9024 24.4572L12.5181 25.1588C12.9233 25.3807 13.3879 25.484 13.8983 25.484V24.684ZM12.906 24.4591C12.6357 24.3075 12.4263 24.1068 12.2709 23.8544L11.5896 24.2736C11.8182 24.6452 12.1288 24.9405 12.5145 25.1569L12.906 24.4591ZM11.5302 24.064V28.216H12.3302V24.064H11.5302ZM11.9303 27.816H9.57825V28.616H11.9303V27.816ZM9.97825 28.216V18.268H9.17825V28.216H9.97825ZM9.57825 18.668H11.9303V17.868H9.57825V18.668ZM11.5302 18.268V19.204H12.3302V18.268H11.5302ZM14.7783 21.628C14.7783 21.1147 14.6365 20.6606 14.3011 20.3252L13.7354 20.8908C13.88 21.0354 13.9783 21.2613 13.9783 21.628H14.7783ZM14.3104 20.3347C14.0016 20.0047 13.6073 19.836 13.1543 19.836V20.636C13.3892 20.636 13.5709 20.7153 13.7261 20.8813L14.3104 20.3347ZM13.1543 19.836C12.7015 19.836 12.3059 20.0042 11.9908 20.3298L12.5657 20.8862C12.7306 20.7158 12.919 20.636 13.1543 20.636V19.836ZM11.9861 20.3347C11.6674 20.6754 11.5302 21.1232 11.5302 21.628H12.3302C12.3302 21.2688 12.4251 21.0366 12.5704 20.8813L11.9861 20.3347ZM11.5302 21.628C11.5302 22.1385 11.6662 22.5913 11.9861 22.9333L12.5704 22.3867C12.4263 22.2327 12.3302 21.9975 12.3302 21.628H11.5302ZM11.9908 22.9382C12.3059 23.2638 12.7015 23.432 13.1543 23.432V22.632C12.919 22.632 12.7306 22.5522 12.5657 22.3818L11.9908 22.9382ZM13.1543 23.432C13.6073 23.432 14.0016 23.2633 14.3104 22.9333L13.7261 22.3867C13.5709 22.5527 13.3892 22.632 13.1543 22.632V23.432ZM14.3101 22.9336C14.6348 22.5872 14.7783 22.1369 14.7783 21.628H13.9783C13.9783 21.9831 13.8817 22.2208 13.7264 22.3864L14.3101 22.9336ZM18.9705 24.784L18.8092 25.1501L18.8167 25.1532L18.9705 24.784ZM17.8425 23.944L17.5233 24.1852L17.5295 24.193L17.8425 23.944ZM17.3865 22.732V22.332H16.9569L16.9875 22.7605L17.3865 22.732ZM19.6665 22.732L20.0622 22.6734L20.0116 22.332H19.6665V22.732ZM20.9385 22.612L21.098 22.2452L20.9385 22.612ZM20.0265 22.348L20.1149 21.9578L20.1049 21.9558L20.0265 22.348ZM18.8265 22.024L18.6861 22.3985L18.8265 22.024ZM17.9865 21.436L17.6821 21.6956L17.6866 21.7006L17.9865 21.436ZM17.9625 19.252L18.2941 19.4758L18.2966 19.472L17.9625 19.252ZM18.9105 18.472L18.7455 18.1076L18.7429 18.1088L18.9105 18.472ZM22.5105 18.832L22.2502 19.1357V19.1357L22.5105 18.832ZM23.3865 20.536V20.936H23.8345L23.7839 20.4908L23.3865 20.536ZM21.2625 20.536L20.8692 20.6088L20.9298 20.936H21.2625V20.536ZM20.9745 20.044L20.7184 20.3513L20.7276 20.3589L20.7372 20.366L20.9745 20.044ZM19.9425 19.972L19.7148 19.6431L19.7086 19.6474L19.7025 19.652L19.9425 19.972ZM20.0745 20.644L19.9019 21.0049L19.9084 21.008L19.915 21.0108L20.0745 20.644ZM20.9625 20.896L20.8782 21.287L20.8791 21.2872L20.9625 20.896ZM22.1745 21.244L22.0259 21.6154L22.0291 21.6166L22.1745 21.244ZM23.0265 21.868L22.7191 22.1242L22.7271 22.1332L23.0265 21.868ZM23.0505 24.076L22.7295 23.8373L22.7256 23.8427L23.0505 24.076ZM22.0785 24.82L22.2344 25.1884L22.2377 25.1869L22.0785 24.82ZM20.6025 24.684C20.0385 24.684 19.5481 24.5913 19.1243 24.4148L18.8167 25.1532C19.3529 25.3767 19.9505 25.484 20.6025 25.484V24.684ZM19.1318 24.418C18.7103 24.2322 18.3896 23.9893 18.1555 23.695L17.5295 24.193C17.8554 24.6027 18.2867 24.9198 18.8092 25.15L19.1318 24.418ZM18.1616 23.7029C17.936 23.4042 17.8119 23.074 17.7855 22.7035L16.9875 22.7605C17.0251 23.286 17.205 23.7638 17.5234 24.1851L18.1616 23.7029ZM17.3865 23.132H19.6665V22.332H17.3865V23.132ZM19.2708 22.7906C19.3177 23.1071 19.4721 23.3744 19.734 23.5615L20.199 22.9105C20.1249 22.8576 20.0793 22.7889 20.0622 22.6734L19.2708 22.7906ZM19.734 23.5615C19.9826 23.739 20.2763 23.816 20.5905 23.816V23.016C20.4087 23.016 20.2864 22.973 20.199 22.9105L19.734 23.5615ZM20.5905 23.816C20.8339 23.816 21.0771 23.7657 21.279 23.6215L20.814 22.9705C20.7919 22.9863 20.7311 23.016 20.5905 23.016V23.816ZM21.279 23.6215C21.4868 23.473 21.6145 23.2522 21.6145 22.984H20.8145C20.8145 22.9867 20.8142 22.9855 20.8152 22.9816C20.8161 22.9776 20.8179 22.9729 20.8203 22.9684C20.8227 22.9639 20.8247 22.9617 20.8246 22.9618C20.8244 22.962 20.8215 22.9652 20.814 22.9705L21.279 23.6215ZM21.6145 22.984C21.6145 22.8222 21.5685 22.6638 21.4667 22.5267C21.3683 22.394 21.2355 22.3049 21.098 22.2452L20.779 22.9788C20.8255 22.9991 20.8307 23.012 20.8243 23.0033C20.821 22.9989 20.8177 22.9928 20.8157 22.9865C20.8139 22.9805 20.8145 22.9788 20.8145 22.984H21.6145ZM21.098 22.2452C20.8772 22.1492 20.5418 22.0546 20.1148 21.9579L19.9382 22.7381C20.3592 22.8335 20.6318 22.9148 20.779 22.9788L21.098 22.2452ZM20.1049 21.9558C19.6378 21.8623 19.2602 21.7594 18.9669 21.6495L18.6861 22.3985C19.0328 22.5286 19.4552 22.6417 19.9481 22.7402L20.1049 21.9558ZM18.9669 21.6495C18.7121 21.5539 18.4858 21.3973 18.2864 21.1714L17.6866 21.7006C17.9672 22.0187 18.3009 22.2541 18.6861 22.3985L18.9669 21.6495ZM18.2908 21.1764C18.137 20.9961 18.0385 20.7297 18.0385 20.332H17.2385C17.2385 20.8623 17.372 21.3319 17.6822 21.6956L18.2908 21.1764ZM18.0385 20.332C18.0385 20.0087 18.1243 19.7272 18.294 19.4758L17.631 19.0282C17.3687 19.4168 17.2385 19.8553 17.2385 20.332H18.0385ZM18.2966 19.472C18.4651 19.2161 18.7184 19.0012 19.0781 18.8352L18.7429 18.1088C18.2706 18.3268 17.8919 18.6319 17.6284 19.032L18.2966 19.472ZM19.0755 18.8364C19.4356 18.6733 19.8845 18.584 20.4345 18.584V17.784C19.8005 17.784 19.2334 17.8867 18.7455 18.1076L19.0755 18.8364ZM20.4345 18.584C21.2505 18.584 21.8395 18.7836 22.2502 19.1357L22.7708 18.5283C22.1735 18.0164 21.3785 17.784 20.4345 17.784V18.584ZM22.2502 19.1357C22.672 19.4972 22.9196 19.9702 22.9891 20.5812L23.7839 20.4908C23.6934 19.6938 23.357 19.0308 22.7708 18.5283L22.2502 19.1357ZM23.3865 20.136H21.2625V20.936H23.3865V20.136ZM21.6558 20.4632C21.6006 20.1648 21.4588 19.904 21.2118 19.722L20.7372 20.366C20.7942 20.408 20.8444 20.4752 20.8692 20.6088L21.6558 20.4632ZM21.2306 19.7367C20.9943 19.5398 20.6976 19.464 20.3865 19.464V20.264C20.5714 20.264 20.6667 20.3082 20.7184 20.3513L21.2306 19.7367ZM20.3865 19.464C20.1526 19.464 19.9121 19.5065 19.7148 19.6431L20.1702 20.3009C20.1809 20.2935 20.2364 20.264 20.3865 20.264V19.464ZM19.7025 19.652C19.4982 19.8052 19.3985 20.0279 19.3985 20.272H20.1985C20.1985 20.265 20.1992 20.2625 20.1989 20.2637C20.1987 20.2649 20.1977 20.2688 20.1951 20.2741C20.1925 20.2795 20.1893 20.2843 20.1862 20.288C20.1831 20.2917 20.1814 20.2928 20.1825 20.292L19.7025 19.652ZM19.3985 20.272C19.3985 20.631 19.6247 20.8723 19.9019 21.0049L20.2471 20.2831C20.1957 20.2586 20.1855 20.2422 20.1887 20.2467C20.1907 20.2493 20.1939 20.2547 20.1963 20.262C20.1986 20.2691 20.1985 20.2732 20.1985 20.272H19.3985ZM19.915 21.0108C20.1373 21.1075 20.4658 21.1981 20.8782 21.287L21.0468 20.505C20.6432 20.4179 20.3797 20.3405 20.234 20.2772L19.915 21.0108ZM20.8791 21.2872C21.3538 21.3884 21.7341 21.4987 22.0259 21.6154L22.3231 20.8726C21.9749 20.7333 21.5472 20.6116 21.0459 20.5048L20.8791 21.2872ZM22.0291 21.6166C22.2901 21.7185 22.5196 21.8845 22.7192 22.1241L23.3338 21.6119C23.0534 21.2755 22.7149 21.0255 22.3199 20.8714L22.0291 21.6166ZM22.7271 22.1332C22.8926 22.3201 22.9985 22.5993 22.9985 23.02H23.7985C23.7985 22.4647 23.6564 21.9759 23.3259 21.6028L22.7271 22.1332ZM22.9985 23.02C22.9985 23.3268 22.9098 23.5949 22.7295 23.8373L23.3715 24.3147C23.6552 23.9331 23.7985 23.4972 23.7985 23.02H22.9985ZM22.7256 23.8427C22.5516 24.0851 22.2905 24.292 21.9193 24.4531L22.2377 25.1869C22.7145 24.98 23.1014 24.6909 23.3754 24.3093L22.7256 23.8427ZM21.9226 24.4516C21.5669 24.6021 21.1303 24.684 20.6025 24.684V25.484C21.2107 25.484 21.7581 25.3899 22.2344 25.1884L21.9226 24.4516ZM24.5428 19.804L24.1839 19.6273L24.1818 19.6318L24.5428 19.804ZM25.5868 18.604L25.3721 18.2665L25.5868 18.604ZM28.2028 18.46L28.0106 18.811L28.0206 18.8161L28.2028 18.46ZM29.0068 19.192L28.6661 19.4016L29.4068 20.6052V19.192H29.0068ZM29.0068 16.12V15.72H28.6068V16.12H29.0068ZM31.3708 16.12H31.7708V15.72H31.3708V16.12ZM31.3708 25V25.4H31.7708V25H31.3708ZM29.0068 25H28.6068V25.4H29.0068V25ZM29.0068 24.064H29.4068V22.5983L28.6623 23.8608L29.0068 24.064ZM28.2268 24.808L28.0347 24.4572L28.2268 24.808ZM25.5748 24.664L25.3572 24.9997L25.3601 25.0015L25.5748 24.664ZM24.5428 23.464L24.1807 23.6341L24.1839 23.6407L24.5428 23.464ZM28.6588 20.608L28.3667 20.8813L28.3714 20.8862L28.6588 20.608ZM26.9188 20.608L27.2064 20.886L27.2109 20.8813L26.9188 20.608ZM26.9188 22.66L26.6224 22.9286L26.6267 22.9333L26.9188 22.66ZM28.6588 22.66L28.3713 22.3818L28.3667 22.3867L28.6588 22.66ZM24.5708 21.628C24.5708 20.9794 24.6863 20.4324 24.9039 19.9762L24.1818 19.6318C23.9033 20.2156 23.7708 20.8846 23.7708 21.628H24.5708ZM24.9017 19.9807C25.129 19.5189 25.4302 19.1778 25.8016 18.9415L25.3721 18.2665C24.8635 18.5902 24.4686 19.0491 24.1839 19.6273L24.9017 19.9807ZM25.8016 18.9415C26.1755 18.7035 26.5887 18.584 27.0508 18.584V17.784C26.441 17.784 25.8781 17.9445 25.3721 18.2665L25.8016 18.9415ZM27.0508 18.584C27.4244 18.584 27.7408 18.663 28.0107 18.8108L28.3949 18.1092C27.9928 17.889 27.5413 17.784 27.0508 17.784V18.584ZM28.0206 18.8161C28.3031 18.9606 28.5147 19.1555 28.6661 19.4016L29.3475 18.9824C29.1149 18.6045 28.7905 18.3114 28.385 18.1039L28.0206 18.8161ZM29.4068 19.192V16.12H28.6068V19.192H29.4068ZM29.0068 16.52H31.3708V15.72H29.0068V16.52ZM30.9708 16.12V25H31.7708V16.12H30.9708ZM31.3708 24.6H29.0068V25.4H31.3708V24.6ZM29.4068 25V24.064H28.6068V25H29.4068ZM28.6623 23.8608C28.517 24.1071 28.3113 24.3057 28.0347 24.4572L28.4189 25.1588C28.8143 24.9423 29.1286 24.6449 29.3514 24.2672L28.6623 23.8608ZM28.0347 24.4572C27.7679 24.6033 27.4404 24.684 27.0388 24.684V25.484C27.5492 25.484 28.0138 25.3807 28.4189 25.1588L28.0347 24.4572ZM27.0388 24.684C26.5767 24.684 26.1635 24.5645 25.7896 24.3265L25.3601 25.0015C25.8661 25.3235 26.429 25.484 27.0388 25.484V24.684ZM25.7924 24.3283C25.4283 24.0924 25.1299 23.7509 24.9017 23.2873L24.1839 23.6407C24.4677 24.2171 24.8573 24.6756 25.3573 24.9997L25.7924 24.3283ZM24.9049 23.2939C24.6862 22.8284 24.5708 22.2764 24.5708 21.628H23.7708C23.7708 22.3716 23.9034 23.0436 24.1808 23.6341L24.9049 23.2939ZM29.4188 21.628C29.4188 21.1196 29.2755 20.6701 28.9463 20.3298L28.3714 20.8862C28.5221 21.0419 28.6188 21.2724 28.6188 21.628H29.4188ZM28.9509 20.3347C28.6422 20.0047 28.2479 19.836 27.7948 19.836V20.636C28.0297 20.636 28.2114 20.7153 28.3667 20.8813L28.9509 20.3347ZM27.7948 19.836C27.3367 19.836 26.9374 20.0026 26.6267 20.3347L27.2109 20.8813C27.3642 20.7174 27.549 20.636 27.7948 20.636V19.836ZM26.6312 20.33C26.3065 20.6659 26.1708 21.1183 26.1708 21.628H26.9708C26.9708 21.2577 27.0671 21.0301 27.2064 20.886L26.6312 20.33ZM26.1708 21.628C26.1708 22.1334 26.3082 22.5819 26.6224 22.9286L27.2152 22.3914C27.0654 22.2261 26.9708 21.9866 26.9708 21.628H26.1708ZM26.6267 22.9333C26.9374 23.2654 27.3367 23.432 27.7948 23.432V22.632C27.549 22.632 27.3642 22.5506 27.2109 22.3867L26.6267 22.9333ZM27.7948 23.432C28.2479 23.432 28.6422 23.2633 28.9509 22.9333L28.3667 22.3867C28.2114 22.5527 28.0297 22.632 27.7948 22.632V23.432ZM28.9463 22.9382C29.2768 22.5966 29.4188 22.142 29.4188 21.628H28.6188C28.6188 21.994 28.5208 22.2274 28.3714 22.3818L28.9463 22.9382ZM37.0311 21.844L37.044 22.2438L37.4311 22.2313V21.844H37.0311ZM36.0351 23.836L35.6388 23.891L35.6402 23.8997L36.0351 23.836ZM36.1431 24.616L35.7458 24.6627L35.746 24.6641L36.1431 24.616ZM35.5071 27.04L35.2403 26.7419L35.2377 26.7443L35.5071 27.04ZM32.7951 27.652H32.3951V28.052H32.7951V27.652ZM32.7951 25.744V25.344H32.3951V25.744H32.7951ZM33.7791 25.576L33.4962 25.2932L33.7791 25.576ZM33.8511 24.004L33.453 24.0438L33.4536 24.0494L33.8511 24.004ZM34.0551 21.472L33.7319 21.2362L33.7278 21.242L34.0551 21.472ZM35.0271 20.908L35.0999 21.3013L35.4271 21.2407V20.908H35.0271ZM35.0271 20.884H35.4271V20.5513L35.0999 20.4907L35.0271 20.884ZM34.0551 20.32L33.7277 20.55L33.7319 20.5558L34.0551 20.32ZM33.8511 17.788L33.4536 17.7426L33.453 17.7482L33.8511 17.788ZM32.7951 16.048H32.3951V16.448H32.7951V16.048ZM32.7951 14.14V13.74H32.3951V14.14H32.7951ZM35.5071 14.752L35.2377 15.0477L35.2403 15.0501L35.5071 14.752ZM36.1431 17.188L36.5402 17.2361L36.5403 17.2347L36.1431 17.188ZM36.0351 17.956L35.6401 17.8923L35.6389 17.901L36.0351 17.956ZM36.1671 19.72L35.9153 20.031L35.9225 20.0365L36.1671 19.72ZM37.0311 19.936H37.4311V19.5439L37.0391 19.5361L37.0311 19.936ZM37.0182 21.4442C36.6083 21.4574 36.2323 21.5426 35.9513 21.7571C35.6493 21.9876 35.5151 22.3222 35.5151 22.696H36.3151C36.3151 22.5258 36.3668 22.4464 36.4368 22.3929C36.5279 22.3234 36.7098 22.2546 37.044 22.2438L37.0182 21.4442ZM35.5151 22.696C35.5151 22.9126 35.5597 23.3207 35.6389 23.891L36.4313 23.781C36.3505 23.1993 36.3151 22.8474 36.3151 22.696H35.5151ZM35.6402 23.8997C35.6792 24.1416 35.7144 24.3959 35.7458 24.6627L36.5403 24.5693C36.5077 24.2921 36.4709 24.0264 36.43 23.7723L35.6402 23.8997ZM35.746 24.6641C35.7765 24.9163 35.7911 25.1358 35.7911 25.324H36.5911C36.5911 25.0962 36.5736 24.8437 36.5402 24.5679L35.746 24.6641ZM35.7911 25.324C35.7911 25.9713 35.5944 26.4251 35.2403 26.7419L35.7738 27.3381C36.3317 26.8389 36.5911 26.1487 36.5911 25.324H35.7911ZM35.2377 26.7443C34.8815 27.0687 34.3791 27.252 33.6831 27.252V28.052C34.5231 28.052 35.2366 27.8273 35.7764 27.3357L35.2377 26.7443ZM33.6831 27.252H32.7951V28.052H33.6831V27.252ZM33.1951 27.652V25.744H32.3951V27.652H33.1951ZM32.7951 26.144H33.2271V25.344H32.7951V26.144ZM33.2271 26.144C33.5265 26.144 33.8399 26.0808 34.0619 25.8588L33.4962 25.2932C33.4942 25.2952 33.4396 25.344 33.2271 25.344V26.144ZM34.0619 25.8588C34.2729 25.6479 34.3471 25.3665 34.3471 25.084H33.5471C33.5471 25.2335 33.5092 25.2801 33.4962 25.2932L34.0619 25.8588ZM34.3471 25.084C34.3471 24.8966 34.3117 24.5121 34.2485 23.9586L33.4536 24.0494C33.5184 24.6159 33.5471 24.9514 33.5471 25.084H34.3471ZM34.2491 23.9642C34.1766 23.2392 34.1431 22.7922 34.1431 22.6H33.3431C33.3431 22.8398 33.3815 23.3288 33.453 24.0438L34.2491 23.9642ZM34.1431 22.6C34.1431 22.2048 34.2327 21.9149 34.3823 21.702L33.7278 21.242C33.4614 21.6211 33.3431 22.0832 33.3431 22.6H34.1431ZM34.3782 21.7078C34.5223 21.5103 34.7472 21.3666 35.0999 21.3013L34.9542 20.5147C34.443 20.6094 34.0198 20.8417 33.7319 21.2362L34.3782 21.7078ZM35.4271 20.908V20.884H34.6271V20.908H35.4271ZM35.0999 20.4907C34.7472 20.4254 34.5223 20.2817 34.3782 20.0842L33.7319 20.5558C34.0198 20.9503 34.443 21.1826 34.9542 21.2773L35.0999 20.4907ZM34.3823 20.09C34.2327 19.8771 34.1431 19.5872 34.1431 19.192H33.3431C33.3431 19.7088 33.4614 20.1709 33.7278 20.55L34.3823 20.09ZM34.1431 19.192C34.1431 18.9998 34.1766 18.5528 34.2491 17.8278L33.453 17.7482C33.3815 18.4632 33.3431 18.9522 33.3431 19.192H34.1431ZM34.2485 17.8334C34.3116 17.2807 34.3471 16.8996 34.3471 16.72H33.5471C33.5471 16.8444 33.5185 17.1753 33.4536 17.7426L34.2485 17.8334ZM34.3471 16.72C34.3471 16.4343 34.2754 16.1466 34.0619 15.9332L33.4962 16.4988C33.5067 16.5094 33.5471 16.5577 33.5471 16.72H34.3471ZM34.0619 15.9332C33.8399 15.7112 33.5265 15.648 33.2271 15.648V16.448C33.4396 16.448 33.4942 16.4968 33.4962 16.4988L34.0619 15.9332ZM33.2271 15.648H32.7951V16.448H33.2271V15.648ZM33.1951 16.048V14.14H32.3951V16.048H33.1951ZM32.7951 14.54H33.6831V13.74H32.7951V14.54ZM33.6831 14.54C34.3791 14.54 34.8815 14.7233 35.2377 15.0477L35.7764 14.4563C35.2366 13.9647 34.5231 13.74 33.6831 13.74V14.54ZM35.2403 15.0501C35.5944 15.3669 35.7911 15.8207 35.7911 16.468H36.5911C36.5911 15.6433 36.3317 14.9531 35.7738 14.4539L35.2403 15.0501ZM35.7911 16.468C35.7911 16.6564 35.7765 16.8802 35.7458 17.1413L36.5403 17.2347C36.5736 16.9518 36.5911 16.6956 36.5911 16.468H35.7911ZM35.746 17.1399C35.7146 17.399 35.6793 17.6498 35.6402 17.8923L36.43 18.0197C36.4708 17.7662 36.5076 17.505 36.5402 17.2361L35.746 17.1399ZM35.6389 17.901C35.5595 18.4722 35.5151 18.8837 35.5151 19.108H36.3151C36.3151 18.9483 36.3506 18.5918 36.4313 18.011L35.6389 17.901ZM35.5151 19.108C35.5151 19.4667 35.63 19.7998 35.9154 20.0309L36.4187 19.4091C36.3682 19.3682 36.3151 19.2933 36.3151 19.108H35.5151ZM35.9225 20.0365C36.2021 20.2526 36.5975 20.3274 37.0231 20.3359L37.0391 19.5361C36.6646 19.5286 36.484 19.4594 36.4116 19.4035L35.9225 20.0365ZM36.6311 19.936V21.844H37.4311V19.936H36.6311Z" fill="black"/>
<defs>
<linearGradient id="paint0_linear_3_40" x1="20" y1="0" x2="20" y2="40" gradientUnits="userSpaceOnUse">
<stop/>
<stop offset="1" stop-color="#222222" stop-opacity="0.8"/>
</linearGradient>
<linearGradient id="paint1_linear_3_40" x1="20" y1="0" x2="20" y2="40" gradientUnits="userSpaceOnUse">
<stop stop-color="#00B2FF"/>
<stop offset="1" stop-color="#FFE81D"/>
</linearGradient>
</defs>
</svg>
