<svg width="53" height="56" viewBox="0 0 53 56" fill="none" xmlns="http://www.w3.org/2000/svg">
<rect width="53" height="56" fill="#3709F2"/>
<path d="M13.253 22.439V26.859H19.207V30.109H13.253V34.62H21.027V38H8.833V19.059H21.027V22.439H13.253ZM49.5423 19.059L43.6923 38H39.7143L36.1523 26.261C36.083 26.079 36.018 25.8797 35.9573 25.663C35.8966 25.4377 35.836 25.2037 35.7753 24.961C35.7146 25.2037 35.654 25.4377 35.5933 25.663C35.5326 25.8797 35.4676 26.079 35.3983 26.261L31.7843 38H27.8063L21.9563 19.059H25.6483C26.0296 19.059 26.346 19.1457 26.5973 19.319C26.8573 19.4923 27.0263 19.722 27.1043 20.008L29.7043 29.888C29.7823 30.2 29.8603 30.5423 29.9383 30.915C30.0163 31.279 30.0943 31.6603 30.1723 32.059C30.3283 31.2443 30.519 30.5207 30.7443 29.888L33.8123 20.008C33.8903 19.7653 34.055 19.5487 34.3063 19.358C34.5663 19.1587 34.8783 19.059 35.2423 19.059H36.5423C36.9236 19.059 37.2313 19.15 37.4653 19.332C37.6993 19.5053 37.877 19.7307 37.9983 20.008L41.0403 29.888C41.2656 30.4947 41.4563 31.1837 41.6123 31.955C41.6816 31.565 41.751 31.201 41.8203 30.863C41.8983 30.5163 41.9763 30.1913 42.0543 29.888L44.6543 20.008C44.7236 19.7567 44.8883 19.5357 45.1483 19.345C45.4083 19.1543 45.7203 19.059 46.0843 19.059H49.5423Z" fill="#F5464F"/>
</svg>
